<?xml version="1.0" standalone="no"?>
<!DOCTYPE svg PUBLIC "-//W3C//DTD SVG 20010904//EN"
 "http://www.w3.org/TR/2001/REC-SVG-20010904/DTD/svg10.dtd">
<svg version="1.0" xmlns="http://www.w3.org/2000/svg"
 width="256.000000pt" height="256.000000pt" viewBox="0 0 256.000000 256.000000"
 preserveAspectRatio="xMidYMid meet">
<metadata>
Created by potrace 1.14, written by Peter Selinger 2001-2017
</metadata>
<g transform="translate(0.000000,256.000000) scale(0.100000,-0.100000)"
fill="#000000" stroke="none">
<path d="M1482 2258 c5 -15 28 -18 29 -3 0 6 -7 12 -17 13 -10 3 -15 -1 -12
-10z"/>
<path d="M1320 2218 c-16 -6 -19 -14 -14 -40 9 -49 12 -58 25 -58 8 0 10 12 6
35 -9 57 17 58 27 1 10 -55 31 -47 28 10 -3 46 22 42 26 -4 2 -21 9 -32 19
-32 13 0 15 8 10 41 -3 22 -8 44 -12 47 -9 9 -92 9 -115 0z"/>
<path d="M1482 2178 c4 -67 23 -65 24 2 2 38 -2 50 -13 50 -11 0 -13 -12 -11
-52z"/>
<path d="M1553 2205 c-13 -9 -23 -25 -23 -36 0 -25 34 -58 56 -55 25 4 30 26
5 26 -11 0 -23 5 -26 10 -11 18 5 47 25 46 10 -1 20 4 22 9 5 17 -36 17 -59 0z"/>
<path d="M1733 2197 c-10 -12 -31 -39 -47 -59 -24 -34 -25 -38 -9 -38 11 0 24
5 30 11 14 14 53 -5 53 -26 0 -8 7 -15 15 -15 12 0 14 11 11 53 -2 28 -4 59
-5 68 -2 27 -27 29 -48 6z m25 -51 c-2 -10 -8 -13 -16 -7 -7 4 -10 15 -6 25 8
21 28 6 22 -18z"/>
<path d="M1201 2201 c-7 -5 -10 -14 -6 -20 5 -9 10 -9 20 -1 10 8 15 8 20 0 4
-7 -2 -14 -13 -17 -27 -7 -36 -33 -18 -51 22 -22 82 -4 78 24 -10 58 -46 87
-81 65z m53 -60 c3 -5 -1 -11 -9 -15 -15 -6 -29 7 -18 18 9 9 21 8 27 -3z"/>
<path d="M1855 2180 c-8 -13 4 -32 16 -25 12 8 12 35 0 35 -6 0 -13 -4 -16
-10z"/>
<path d="M1087 2166 c-17 -13 -17 -16 -1 -55 9 -23 22 -40 28 -38 6 3 9 11 7
18 -11 39 -12 69 -2 69 6 0 11 -1 11 -2 0 -2 6 -20 13 -40 10 -27 17 -34 27
-28 11 7 11 14 -1 47 -16 42 -49 54 -82 29z"/>
<path d="M1917 2153 c-39 -66 -57 -107 -52 -121 6 -16 7 -16 19 1 18 23 26 21
26 -7 0 -13 7 -27 16 -30 12 -5 14 0 10 29 -5 32 -3 37 21 46 21 8 24 12 13
19 -8 5 -21 5 -31 0 -26 -14 -30 0 -9 30 18 25 18 40 -1 40 -4 0 -10 -3 -12
-7z"/>
<path d="M1025 2137 c-4 -9 -5 -26 -2 -37 6 -25 2 -25 -25 0 -49 45 -51 13 -3
-37 32 -33 33 -37 17 -49 -21 -16 -7 -32 16 -18 20 13 29 113 13 141 -9 17
-10 17 -16 0z"/>
<path d="M1822 2104 c-14 -28 -18 -45 -11 -50 14 -8 24 3 42 48 23 56 -4 58
-31 2z"/>
<path d="M841 2081 l-24 -18 34 -56 c33 -55 33 -55 61 -41 36 19 51 48 43 85
-11 49 -69 65 -114 30z m83 -33 c11 -18 0 -48 -20 -55 -15 -5 -55 65 -41 71
22 9 50 1 61 -16z"/>
<path d="M2020 2086 c0 -9 7 -16 16 -16 17 0 14 22 -4 28 -7 2 -12 -3 -12 -12z"/>
<path d="M1980 2028 c-14 -22 -24 -42 -23 -46 5 -19 23 -8 46 27 20 30 23 42
14 49 -9 7 -19 -1 -37 -30z"/>
<path d="M2120 2015 c-9 -11 -17 -12 -31 -4 -26 14 -53 4 -68 -25 -15 -27 -3
-59 29 -76 16 -9 25 -2 64 49 34 44 42 60 32 64 -8 3 -20 -1 -26 -8z m-37 -31
c9 -9 -16 -44 -30 -44 -16 0 -17 22 -1 38 13 13 22 15 31 6z"/>
<path d="M646 1945 c-270 -117 -518 -363 -605 -600 -45 -125 -50 -303 -9 -410
30 -80 53 -121 90 -160 28 -31 44 -61 55 -101 46 -177 173 -308 353 -365 83
-27 274 -33 363 -13 86 20 153 42 215 71 29 14 54 23 56 22 1 -2 15 -25 29
-51 24 -41 32 -47 65 -50 20 -2 64 2 97 9 33 6 85 14 115 17 30 3 66 8 80 10
39 7 119 16 280 31 36 3 82 8 103 11 28 4 43 1 58 -12 27 -24 24 -31 -13 -32
-18 0 -42 -1 -53 -2 -45 -3 44 -27 115 -30 76 -4 78 5 16 66 -31 30 -67 88
-121 194 -42 83 -84 154 -93 157 -9 3 -53 19 -96 35 -63 23 -89 28 -123 23
-37 -5 -46 -3 -68 19 -14 14 -25 32 -25 40 0 19 27 46 46 46 20 0 17 18 -4 25
-16 5 -48 53 -40 60 2 1 18 10 36 19 38 19 38 21 13 47 -20 22 -20 51 -1 74
14 16 -12 33 -185 116 -71 34 -133 64 -137 66 -4 2 -27 -17 -52 -42 -56 -56
-68 -58 -26 -5 66 84 161 298 159 359 0 14 -3 19 -5 11 -53 -162 -171 -336
-280 -411 -40 -27 -43 -32 -33 -52 6 -12 21 -32 32 -44 11 -13 15 -23 9 -23
-14 0 -57 56 -71 92 -14 36 -16 80 -7 148 7 54 6 55 -8 23 -42 -92 -23 -230
38 -288 18 -17 52 -37 75 -44 51 -15 153 -16 201 -1 54 16 17 -14 -50 -40 -82
-33 -191 -37 -260 -11 -85 32 -145 100 -159 179 -8 47 -6 188 3 224 28 118
112 272 185 342 l30 29 19 -23 c11 -13 33 -29 50 -35 l31 -10 -18 -50 c-10
-27 -22 -59 -26 -70 -8 -18 -7 -19 9 -6 18 15 56 83 56 101 0 5 14 39 30 73
17 35 30 73 30 84 0 24 18 33 65 33 84 0 126 -60 120 -171 -3 -64 -41 -162
-77 -200 -39 -41 -38 -50 2 -18 29 23 57 60 80 104 31 61 35 75 34 146 -1 68
-5 85 -28 119 -34 51 -78 74 -143 74 -46 -1 -53 2 -53 19 0 26 -63 87 -90 87
-34 0 -78 -31 -95 -67 -9 -18 -16 -57 -16 -88 -1 -48 -4 -58 -29 -75 l-27 -19
-33 51 c-38 58 -133 155 -177 180 -29 17 -31 16 -107 -17z m519 -25 c22 -24
29 -98 14 -152 -10 -39 -45 -81 -63 -75 -28 9 -49 59 -53 124 -5 62 -3 72 18
96 29 32 59 34 84 7z m-487 -367 c-79 -84 -168 -241 -208 -368 -28 -90 -34
-227 -13 -298 14 -47 14 -56 -1 -97 -33 -95 4 -170 85 -170 33 0 52 -9 97 -44
118 -93 268 -129 422 -102 58 10 165 52 213 84 58 38 54 20 -8 -37 -159 -144
-428 -216 -664 -175 -291 50 -446 335 -361 665 55 215 189 404 378 530 88 59
109 63 60 12z m96 -433 c6 -41 5 -42 -76 -130 -46 -50 -90 -90 -98 -90 -8 -1
-33 -7 -55 -15 -21 -8 -41 -13 -42 -11 -2 2 -6 28 -9 58 l-6 56 52 50 c48 46
205 136 221 127 3 -3 9 -23 13 -45z m-125 -261 c17 -6 31 -14 32 -17 0 -4 2
-16 4 -26 9 -48 -46 -126 -106 -150 -64 -26 -107 5 -96 70 4 26 35 75 55 89
16 10 76 45 78 45 0 0 15 -5 33 -11z"/>
<path d="M2137 1933 c-24 -6 -40 -49 -27 -73 17 -33 49 -35 79 -6 25 25 25 28
11 54 -16 27 -31 34 -63 25z m43 -37 c0 -22 -29 -41 -42 -28 -8 8 -8 15 2 27
16 19 40 20 40 1z"/>
<path d="M1735 1902 c-6 -4 -12 -16 -13 -27 -6 -32 -36 -74 -98 -137 -61 -62
-55 -78 12 -29 39 27 83 74 104 109 10 18 19 11 103 -87 25 -28 33 -32 69 -29
56 4 57 19 3 42 -53 21 -148 103 -141 121 6 16 -26 46 -39 37z"/>
<path d="M2258 1803 c-27 -19 -48 -41 -48 -49 0 -19 10 -17 40 6 36 28 42 25
25 -16 -15 -37 -20 -74 -9 -74 15 0 104 73 104 86 0 19 -7 18 -43 -8 -29 -21
-30 -21 -23 -2 13 33 19 81 10 86 -5 3 -30 -10 -56 -29z"/>
<path d="M1723 1737 c-69 -14 -73 -29 -8 -29 50 0 70 3 85 12 13 9 13 11 0 20
-8 5 -17 9 -20 8 -3 0 -29 -6 -57 -11z"/>
<path d="M1785 1679 c-16 -5 -52 -10 -80 -12 -37 -3 -49 -7 -46 -18 2 -8 7
-30 11 -50 10 -52 18 -61 41 -49 10 6 25 10 32 9 6 -1 29 -1 50 0 30 1 37 5
37 21 0 12 7 34 15 50 13 26 13 30 -1 44 -17 18 -17 18 -59 5z m15 -46 c0 -32
-17 -45 -56 -46 -35 -2 -39 1 -42 25 -3 28 7 34 71 37 20 1 27 -4 27 -16z"/>
<path d="M2313 1661 c-24 -22 -22 -50 5 -75 15 -12 21 -13 50 -1 48 21 44 77
-8 90 -18 4 -32 0 -47 -14z m61 -26 c4 -10 -2 -19 -17 -24 -28 -11 -44 3 -27
24 16 19 36 19 44 0z"/>
<path d="M2372 1563 c-23 -9 -33 -40 -22 -68 11 -30 34 -24 24 7 -4 13 -1 24
7 29 22 14 37 10 44 -11 8 -25 25 -26 25 -2 0 35 -42 60 -78 45z"/>
<path d="M1680 1491 c0 -10 -16 -39 -35 -65 -42 -55 -25 -63 25 -11 18 19 36
32 40 30 4 -2 24 0 45 6 20 6 47 12 58 15 29 5 31 11 9 23 -15 8 -29 7 -57 -5
-21 -8 -40 -13 -43 -10 -3 3 -2 6 3 6 4 0 2 7 -5 15 -17 21 -40 19 -40 -4z"/>
<path d="M2403 1468 c-24 -11 -26 -18 -23 -55 1 -15 -4 -23 -14 -23 -17 0 -22
-15 -8 -24 11 -7 115 24 123 37 8 12 -9 67 -21 67 -5 0 -14 2 -22 4 -7 3 -23
0 -35 -6z m46 -31 c14 -17 4 -27 -26 -27 -25 0 -29 10 -11 28 15 15 23 15 37
-1z"/>
<path d="M1723 1429 c-34 -10 -45 -29 -17 -29 27 0 94 23 94 32 0 10 -35 9
-77 -3z"/>
<path d="M1767 1395 c-27 -7 -66 -15 -88 -18 -52 -6 -57 -12 -22 -29 19 -9 29
-22 31 -41 2 -15 -1 -27 -7 -27 -6 0 -11 9 -11 19 0 16 -18 31 -36 31 -12 0
-2 -30 14 -39 14 -9 12 -11 -16 -17 -54 -11 -50 -29 6 -27 17 1 16 -2 -19 -42
-38 -42 -17 -49 31 -9 24 21 28 29 19 40 -9 11 -8 14 5 14 13 0 15 -7 10 -39
-3 -21 -2 -47 4 -57 9 -16 10 -16 20 2 5 10 9 38 8 62 -1 42 -1 43 36 49 59 9
50 28 -11 23 -20 -1 -23 2 -18 19 3 13 -1 24 -11 30 -12 7 -8 11 24 20 21 6
45 11 52 11 11 0 17 -35 12 -87 -3 -40 20 -102 47 -122 26 -21 87 -29 97 -12
3 5 0 26 -8 47 l-14 39 -11 -28 c-15 -39 -41 -32 -65 17 -17 34 -18 46 -8 99
8 44 8 64 1 74 -13 15 -10 15 -72 -2z"/>
<path d="M2446 1351 c-36 -8 -51 -30 -42 -64 6 -24 10 -26 44 -23 20 3 43 5
50 5 30 2 3 26 -29 26 -46 0 -49 18 -4 29 20 4 34 13 32 19 -4 14 -16 16 -51
8z"/>
<path d="M1737 1328 c-8 -30 -1 -35 23 -13 25 23 26 35 1 35 -11 0 -21 -9 -24
-22z"/>
<path d="M1730 1241 c0 -13 40 -61 51 -61 18 0 9 39 -13 54 -25 18 -38 20 -38
7z"/>
<path d="M2425 1220 c-19 -20 -14 -70 6 -70 6 0 9 9 6 19 -2 10 -1 25 4 32 9
15 11 11 13 -36 1 -14 7 -19 21 -17 46 8 59 46 27 75 -25 23 -55 21 -77 -3z
m65 -31 c0 -11 -4 -18 -10 -14 -5 3 -7 12 -3 20 7 21 13 19 13 -6z"/>
<path d="M1828 1080 c-22 -39 -54 -57 -41 -24 7 18 -20 44 -44 44 -19 0 -16
-17 7 -40 11 -11 19 -20 18 -21 -2 0 -16 -3 -33 -5 -16 -3 -32 -8 -35 -10 -9
-10 26 -24 48 -19 15 4 22 1 22 -10 0 -9 -9 -15 -22 -15 -22 0 -23 -2 -18 -81
5 -76 4 -80 -15 -75 -11 3 -26 6 -33 6 -7 0 -10 4 -7 10 3 5 -1 23 -9 39 -14
25 -14 30 -1 41 18 15 19 39 2 46 -7 2 -31 -3 -53 -12 -34 -15 -36 -18 -19
-24 11 -4 23 -6 26 -4 4 2 9 -9 12 -24 14 -68 14 -67 -20 -67 -18 0 -33 -3
-33 -7 0 -5 0 -13 0 -19 0 -8 14 -9 43 -5 32 5 59 0 112 -20 94 -35 117 -41
135 -39 28 5 93 35 87 41 -6 7 -11 7 -132 19 -67 6 -83 11 -74 19 10 10 89 12
98 3 22 -22 36 10 36 85 l0 73 -42 0 c-60 0 -41 27 23 33 55 4 59 6 49 21 -3
6 -25 11 -48 11 l-42 0 33 20 c38 23 38 26 12 40 -17 9 -22 5 -42 -30z m12
-122 c0 -4 -8 -8 -17 -9 -10 0 -29 -3 -43 -5 -15 -3 -21 -1 -15 5 17 16 75 23
75 9z m-10 -49 c-39 -11 -70 -10 -70 2 0 6 6 9 13 6 6 -2 21 -1 32 3 11 4 27
5 35 2 11 -4 8 -8 -10 -13z m18 -35 c-11 -10 -88 -22 -88 -13 0 10 16 15 59
18 19 1 32 -1 29 -5z"/>
<path d="M2415 1102 c-10 -28 -5 -52 10 -46 8 4 13 10 10 14 -5 9 18 20 42 20
10 0 14 -6 10 -20 -3 -13 0 -20 9 -20 8 0 14 7 14 15 0 8 7 15 15 15 15 0 22
29 8 31 -50 8 -113 3 -118 -9z"/>
<path d="M1606 1061 c-7 -11 32 -51 49 -51 8 0 15 9 15 19 0 20 -55 47 -64 32z"/>
<path d="M2400 970 c-27 -51 2 -112 43 -89 11 7 17 6 17 -1 0 -15 36 -12 50 4
6 8 14 29 16 45 5 27 2 31 -23 36 -15 3 -43 10 -61 15 -27 7 -34 5 -42 -10z
m50 -34 c0 -12 -28 -44 -31 -35 -9 27 -4 49 12 49 11 0 19 -6 19 -14z m50 -22
c0 -8 -7 -14 -15 -14 -15 0 -21 21 -9 33 10 9 24 -2 24 -19z"/>
<path d="M2360 826 c0 -8 11 -23 25 -34 34 -27 32 -31 -16 -25 -36 5 -41 4
-38 -12 6 -26 97 -91 111 -77 7 7 -2 18 -27 35 l-38 26 38 3 c49 4 53 17 12
46 -35 24 -31 26 25 13 31 -7 37 -6 41 9 4 14 -4 19 -47 24 -74 9 -86 8 -86
-8z"/>
<path d="M2259 624 c-16 -18 -20 -27 -12 -35 8 -8 14 -5 23 10 6 12 16 19 21
15 6 -4 4 -12 -5 -23 -29 -32 -16 -48 34 -41 36 5 41 63 8 82 -35 19 -45 18
-69 -8z m66 -45 c-10 -15 -25 -10 -19 6 4 8 10 12 15 9 5 -3 7 -10 4 -15z"/>
<path d="M2211 556 c-9 -10 -9 -16 -1 -21 17 -10 37 12 24 25 -8 8 -15 6 -23
-4z"/>
<path d="M2162 498 c-8 -10 -3 -29 21 -75 17 -34 34 -60 39 -57 13 8 9 31 -12
69 -22 39 -15 43 31 19 30 -15 59 -13 59 3 0 5 -24 17 -52 27 -29 10 -58 20
-64 23 -6 2 -16 -2 -22 -9z"/>
<path d="M195 416 c-55 -37 -81 -63 -72 -72 6 -6 53 -8 140 -5 37 1 53 16 20
18 -10 0 -32 2 -50 4 -34 3 -33 9 9 52 19 18 24 37 10 37 -4 0 -30 -15 -57
-34z"/>
<path d="M2105 440 c-11 -17 5 -32 21 -19 7 6 11 15 8 20 -7 12 -21 11 -29 -1z"/>
</g>
</svg>
